<?xml version="1.0" encoding="UTF-8"?>
<svg id="Layer_2" data-name="Layer 2" xmlns="http://www.w3.org/2000/svg" viewBox="0 0 425.2 170.08">
  <defs>
    <style>
      .cls-1 {
        fill: #fff;
      }
    </style>
  </defs>
  <g id="Layer_1-2" data-name="Layer 1">
    <path class="cls-1" d="M352.49,167.68c2.58,1.6,5.47,2.39,8.65,2.39s6.06-.8,8.61-2.39c2.55-1.6,4.6-3.73,6.13-6.4,1.54-2.67,2.31-5.66,2.31-8.97v-4.01c0-.23-.12-.35-.35-.35h-9.83c-.23,0-.35.12-.35.35v4.01c0,1.86-.62,3.53-1.87,5.01-1.25,1.48-2.8,2.22-4.65,2.22s-3.32-.67-4.57-2c-1.25-1.34-1.87-3.08-1.87-5.22v-27.17c0-1.86.55-3.5,1.65-4.92,1.1-1.42,2.7-2.13,4.78-2.13,1.86,0,3.41.7,4.65,2.09,1.25,1.39,1.87,3.05,1.87,4.96v4c0,.23.12.35.35.35h9.74c.23,0,.35-.12.35-.35v-4c0-3.25-.76-6.2-2.26-8.84-1.51-2.64-3.54-4.74-6.09-6.31-2.55-1.57-5.42-2.35-8.61-2.35s-6.07.8-8.65,2.39c-2.58,1.6-4.61,3.71-6.09,6.36-1.48,2.64-2.22,5.56-2.22,8.75l-.09,27.17c0,3.31.75,6.3,2.26,8.97,1.51,2.67,3.55,4.8,6.13,6.4h0ZM399.58,167.68c2.58,1.6,5.44,2.39,8.57,2.39s5.99-.8,8.57-2.39c2.58-1.6,4.64-3.71,6.18-6.36,1.54-2.64,2.31-5.56,2.31-8.75l-.09-27.6c0-3.19-.77-6.1-2.3-8.71-1.54-2.61-3.58-4.7-6.13-6.27-2.55-1.57-5.39-2.35-8.52-2.35s-5.91.78-8.52,2.35c-2.61,1.57-4.68,3.66-6.22,6.27-1.54,2.61-2.31,5.52-2.31,8.71l-.09,27.6c0,3.19.78,6.11,2.35,8.75,1.57,2.64,3.64,4.76,6.22,6.36h0ZM408.15,159.54c-1.8,0-3.33-.68-4.61-2.05-1.28-1.36-1.91-3-1.91-4.92v-27.6c0-1.97.64-3.61,1.91-4.92,1.28-1.31,2.81-1.96,4.61-1.96s3.39.67,4.61,2c1.22,1.34,1.83,2.96,1.83,4.88l.09,27.6c0,1.8-.65,3.41-1.96,4.83-1.3,1.42-2.83,2.13-4.57,2.13h0ZM386.57,91.13c3.91,2.42,8.21,3.63,12.87,3.63s9.07-1.19,12.94-3.57c3.87-2.38,6.98-5.57,9.31-9.58,2.33-4.01,3.5-8.39,3.5-13.15v-8.19c0-3.7-.68-7.18-2.05-10.44-1.37-3.26-3.23-6.08-5.61-8.46,1.94-2.2,3.45-4.71,4.55-7.53,1.1-2.82,1.65-5.86,1.65-9.12,0-4.58-1.1-8.72-3.3-12.42-2.2-3.7-5.13-6.67-8.78-8.92-3.65-2.25-7.73-3.37-12.21-3.37s-8.58,1.1-12.28,3.3c-3.7,2.2-6.63,5.18-8.78,8.92-2.16,3.75-3.24,7.91-3.24,12.49,0,3.26.55,6.32,1.65,9.19,1.1,2.86,2.62,5.35,4.56,7.47-2.38,2.47-4.27,5.31-5.68,8.53-1.41,3.22-2.11,6.67-2.11,10.38v8.19c0,4.76,1.19,9.12,3.56,13.09,2.38,3.96,5.52,7.16,9.44,9.58h0ZM399.45,33.57c-2.29,0-4.27-.88-5.94-2.64-1.67-1.76-2.51-3.83-2.51-6.21s.84-4.58,2.51-6.34c1.67-1.76,3.65-2.64,5.94-2.64s4.25.88,5.88,2.64c1.63,1.76,2.44,3.88,2.44,6.34s-.82,4.56-2.44,6.28c-1.63,1.72-3.59,2.58-5.88,2.58h0ZM399.45,78.91c-2.73,0-5.06-1.03-7-3.11-1.94-2.07-2.91-4.51-2.91-7.33v-8.19c0-2.91.97-5.37,2.91-7.4,1.93-2.03,4.27-3.04,7-3.04s5.04,1.04,6.93,3.11c1.89,2.07,2.84,4.52,2.84,7.34v8.19c0,2.91-.95,5.38-2.84,7.4-1.89,2.03-4.2,3.04-6.93,3.04h0ZM342.62,3.63c-3.88-2.42-8.19-3.63-12.94-3.63-4.49,0-8.69,1.19-12.61,3.57-3.92,2.38-7.09,5.6-9.51,9.65-2.42,4.05-3.63,8.55-3.63,13.48v6.48c0,.44.18.66.53.66h14.79c.44,0,.66-.22.66-.66v-6.48c0-3.17.95-5.79,2.84-7.86,1.89-2.07,4.2-3.11,6.93-3.11s5.15,1.08,7,3.24c1.85,2.16,2.77,4.52,2.77,7.07,0,.97-.2,2.09-.59,3.37-.4,1.28-.9,2.31-1.52,3.11l-32.61,44.81c-.18.18-.26.35-.26.53v14.94c0,.44.22.66.66.66h49.25c.35,0,.53-.22.53-.66v-14.94c0-.35-.18-.53-.53-.53h-29.71l25.09-34.5c1.76-2.29,3.15-4.93,4.16-7.93,1.01-2.99,1.52-5.95,1.52-8.86,0-4.58-1.17-8.86-3.5-12.82-2.33-3.97-5.44-7.16-9.31-9.58h0ZM264.4,1.45h-15.19c-.35,0-.66.18-.92.53l-20.73,31.46V2.11c0-.44-.18-.66-.53-.66h-14.79c-.35,0-.53.22-.53.66l-.27,90.67c0,.44.18.66.53.66h14.92c.35,0,.53-.22.53-.66v-31.46l4.62-7.27,17.83,38.86c.09.35.35.53.79.53h16.11c.61,0,.84-.18.66-.53l-25.62-54.46L264.67,1.98c.18-.35.09-.53-.26-.53h0ZM188.46,1.45h-13.07c-.79,0-1.19.35-1.19,1.06l.66,51.02L152.55,1.45h-11.88c-.71,0-1.06.35-1.06,1.06l.13,90.01c0,.62.35.93,1.06.93h13.2c.79,0,1.19-.35,1.19-1.06l-.93-47.58,22.84,48.64h11.62c.44,0,.66-.27.66-.79l-.13-90.14c0-.7-.26-1.06-.79-1.06h0ZM103.76,1.45h-19.15c-.35,0-.57.18-.66.53l-16.37,90.8c0,.44.17.66.53.66h14.66c.35,0,.57-.22.66-.66l1.45-9.65h17.96l1.45,9.65c.09.44.31.66.66.66h14.66c.44,0,.62-.22.53-.66L104.42,1.98c-.09-.35-.31-.53-.66-.53h0ZM93.99,26.96l.79,4.89,5.41,37.14h-12.68l5.94-37.14.53-4.89h0ZM39.61,5.09c-3.96-2.42-8.45-3.63-13.47-3.63H.79c-.35,0-.53.18-.53.53l-.26,90.8c0,.44.18.66.53.66h23.64c5.1,0,9.75-1.26,13.93-3.77,4.18-2.51,7.5-5.88,9.97-10.11,2.46-4.23,3.7-8.9,3.7-14.01,0-3.7-.71-7.23-2.11-10.57-1.41-3.35-3.39-6.3-5.94-8.86,2.38-2.03,4.42-4.67,6.14-7.93,1.72-3.26,2.57-6.78,2.57-10.57,0-4.67-1.15-8.99-3.43-12.95-2.29-3.97-5.41-7.16-9.38-9.58h0ZM24.16,53.93c3.17,0,5.9,1.15,8.19,3.44,2.29,2.29,3.43,5.02,3.43,8.2s-1.15,5.93-3.43,8.26c-2.29,2.33-5.02,3.5-8.19,3.5h-8.19l.13-23.39h8.05ZM26.14,17.18c2.82,0,5.24,1.04,7.26,3.11,2.02,2.07,3.04,4.52,3.04,7.34,0,2.56-.95,4.91-2.84,7.07-1.89,2.16-4.38,3.24-7.46,3.24h-10.04v-20.75h10.04ZM300.3,109.96c-2.58-1.54-5.47-2.31-8.66-2.31s-5.9.78-8.48,2.35c-2.58,1.57-4.64,3.67-6.18,6.31-1.54,2.64-2.31,5.53-2.31,8.66v27.6c0,3.25.77,6.2,2.31,8.84,1.54,2.64,3.58,4.74,6.13,6.31,2.55,1.57,5.39,2.35,8.52,2.35s6.06-.78,8.61-2.35c2.55-1.57,4.59-3.67,6.13-6.31,1.54-2.64,2.3-5.59,2.3-8.84v-14.45c0-.29-.12-.43-.35-.43h-16.27c-.29,0-.43.15-.43.43v9.75c0,.29.14.43.43.43h6.09v4.27c0,1.97-.62,3.63-1.87,4.96-1.25,1.33-2.8,2-4.65,2-1.74,0-3.25-.68-4.52-2.05-1.28-1.36-1.91-3-1.91-4.92v-27.6c0-1.86.65-3.48,1.96-4.88s2.8-2.09,4.48-2.09c1.86,0,3.41.73,4.65,2.18,1.25,1.45,1.87,3.28,1.87,5.49v3.31c0,.23.12.35.35.35h9.74c.29,0,.43-.12.43-.35v-4.01c0-3.25-.75-6.18-2.26-8.79-1.51-2.61-3.55-4.69-6.13-6.23h0ZM260.29,108.61h-8.61c-.52,0-.78.23-.78.7l.44,33.61-14.7-34.3h-7.83c-.47,0-.7.23-.7.7l.09,59.29c0,.41.23.61.7.61h8.7c.52,0,.78-.23.78-.7l-.61-31.34,15.05,32.04h7.65c.29,0,.43-.17.43-.52l-.09-59.38c0-.46-.17-.7-.52-.7h0ZM213.03,108.61h-9.74c-.23,0-.35.12-.35.35l-.09,59.82c0,.29.14.44.43.44h9.83c.23,0,.35-.14.35-.44l-.09-59.82c0-.23-.12-.35-.35-.35h0ZM189.77,108.61h-9.66c-.23,0-.38.12-.43.35l-5.65,39.35-5.65-39.35c-.06-.23-.2-.35-.44-.35h-7.83c-.29,0-.47.12-.52.35l-5.74,39.35-5.57-39.35c-.06-.23-.2-.35-.43-.35h-9.74c-.23,0-.32.12-.26.35l10.26,59.82c.06.29.2.44.44.44h10.52c.23,0,.38-.14.43-.44l4.44-31.26,4.44,31.26c.11.29.26.44.44.44h10.52c.23-.17.38-.32.44-.44l10.35-59.82c.06-.23-.06-.35-.35-.35h0ZM124.75,108.61h-27.92c-.23,0-.35.12-.35.35l-.09,59.82c0,.29.11.44.35.44h28.1c.23,0,.35-.12.35-.35v-9.92c0-.29-.12-.44-.35-.44h-17.92v-15.24h17.92c.23,0,.35-.12.35-.35l-.09-9.84c0-.23-.12-.35-.35-.35h-17.83v-13.58h17.83c.23,0,.35-.12.35-.35v-9.75c0-.29-.12-.44-.35-.44h0ZM74.25,110.92c-2.64-1.54-5.52-2.31-8.65-2.31h-17.57c-.23,0-.35.12-.35.35l-.17,59.82c0,.29.12.44.35.44h9.83c.23,0,.35-.14.35-.44l.09-25.6h5.74c2.15,0,3.96.77,5.44,2.31,1.48,1.54,2.22,3.35,2.22,5.44v18.02c0,.17.12.26.35.26h9.83c.29,0,.43-.14.43-.44l-.09-17.85c0-4.7-1.56-8.79-4.7-12.28.7-.58,1.48-1.46,2.35-2.66.87-1.19,1.62-2.64,2.26-4.35.64-1.71.96-3.64.96-5.79,0-3.25-.78-6.17-2.35-8.75-1.57-2.58-3.67-4.64-6.31-6.18h0ZM65.59,119.06c1.85,0,3.46.67,4.83,2,1.36,1.34,2.04,2.93,2.04,4.79s-.7,3.54-2.09,4.88c-1.39,1.34-2.99,2-4.78,2h-7.48v-13.67h7.48ZM26.09,111c-2.61-1.6-5.57-2.39-8.87-2.39H.52c-.23,0-.35.12-.35.35l-.17,59.82c0,.29.12.44.35.44h15.57c3.36,0,6.42-.83,9.18-2.48,2.75-1.65,4.94-3.87,6.57-6.66,1.62-2.79,2.44-5.86,2.44-9.23,0-2.44-.46-4.76-1.39-6.96-.93-2.21-2.23-4.15-3.91-5.83,1.57-1.33,2.91-3.08,4.04-5.22,1.13-2.15,1.7-4.47,1.7-6.96,0-3.08-.75-5.92-2.26-8.53-1.51-2.61-3.57-4.71-6.18-6.31h0ZM15.92,143.17c2.09,0,3.88.76,5.39,2.26,1.51,1.51,2.26,3.31,2.26,5.4s-.75,3.9-2.26,5.44c-1.51,1.54-3.31,2.31-5.39,2.31h-5.39l.09-15.41h5.31ZM17.22,118.97c1.86,0,3.45.68,4.78,2.05,1.33,1.36,2,2.97,2,4.83,0,1.68-.62,3.24-1.87,4.66-1.25,1.42-2.89,2.13-4.91,2.13h-6.61v-13.67h6.61Z"/>
  </g>
</svg>