<?xml version="1.0" encoding="UTF-8"?>
<svg id="Layer_2" data-name="Layer 2" xmlns="http://www.w3.org/2000/svg" viewBox="0 0 340.16 340.16">
  <defs>
    <style>
      .cls-1 {
        fill: #83261a;
      }
    </style>
  </defs>
  <g id="Layer_1-2" data-name="Layer 1">
    <path class="cls-1" d="M314.33,213.26c4.84-9.36,7.28-19.69,7.28-31.03,0-9.99-1.89-19.38-5.68-28.18-3.87-8.64-9.27-16.13-16.2-22.47-6.69-6.18-14.87-11.02-24.53-14.51-9.43-3.41-19.86-5.11-31.3-5.11h-.44v228h3.57c17.74,0,33.67-3.19,47.81-9.56,14.23-6.45,25.34-15.26,33.33-26.41,7.99-11.15,11.99-23.72,11.99-37.72,0-10.56-2.29-20.5-6.87-29.8-4.55-8.89-10.9-16.61-18.96-23.21h0ZM231.88,94v-1.43c0-1.34-.05-2.41-.13-3.21-.09-.71-.13-1.34-.13-1.87s-.04-.94-.13-1.2c-.35-6.42-1.83-13.68-4.44-21.8-2.7-7.84-6.01-14.75-9.92-20.73-10.01-15.6-23.28-26.92-39.82-33.97-6.09-2.85-13.49-4.9-22.19-6.15-8.27-1.16-20.24-1.74-35.9-1.74-11.92,0-22.15.27-30.68.8,8.27,6.33,14.36,13.24,18.28,20.73,3.83,7.58,5.74,15.91,5.74,25.01,0,6.42-.74,12.17-2.22,17.25-1.48,5.08-4.22,10.61-8.22,16.58-4.53,6.78-65.75,85.47-65.75,85.47L.71,213.43h149.16c.22-.18.43-.36.66-.54-5.58-10.31-8.39-21.7-8.39-34.19,0-11.01,2.18-21.36,6.55-31.05,4.46-9.52,10.68-17.77,18.67-24.76,7.71-6.81,17.13-12.14,28.28-15.99,10.87-3.75,22.89-5.63,36.08-5.63h.12v-7.04s-1.3-.17.06-.22h0ZM102.05,51.02C102.05,22.84,79.2,0,51.02,0S0,22.84,0,51.02s22.84,51.02,51.02,51.02,51.02-22.84,51.02-51.02h0ZM141.95,236.66c-4.57,9.31-6.85,19.24-6.85,29.8,0,14,3.99,26.58,11.95,37.73,7.97,11.15,19.05,19.96,33.23,26.41,14.09,6.37,29.98,9.56,47.66,9.56h3.56V112.13h-.44c-11.4,0-21.81,1.71-31.21,5.11-9.64,3.49-17.79,8.32-24.46,14.51-6.91,6.34-12.29,13.84-16.15,22.48-3.77,8.8-5.66,18.2-5.66,28.19,0,11.33,2.43,21.67,7.26,31.03-8.04,6.59-14.36,14.32-18.9,23.21h0Z"/>
  </g>
</svg>